<svg xmlns="http://www.w3.org/2000/svg" version="1.1" xmlns:xlink="http://www.w3.org/1999/xlink" width="512" height="512" x="0" y="0" viewBox="0 0 512 512" style="enable-background:new 0 0 512 512" xml:space="preserve"><g><path d="M394.881 31.137H13.987A6.487 6.487 0 0 0 7.5 37.624v88.849a6.487 6.487 0 0 0 6.487 6.487h22.707a6.488 6.488 0 0 0 5.422-2.925l20.741-31.564a6.49 6.49 0 0 1 5.422-2.925h87.953a6.487 6.487 0 0 1 6.487 6.487v372.34a6.487 6.487 0 0 0 6.487 6.487h70.453a6.487 6.487 0 0 0 6.487-6.487v-372.34a6.487 6.487 0 0 1 6.487-6.487h87.954a6.488 6.488 0 0 1 5.422 2.925l20.741 31.564a6.49 6.49 0 0 0 5.422 2.925h22.707a6.487 6.487 0 0 0 6.487-6.487V37.625a6.484 6.484 0 0 0-6.485-6.488z" style="" fill="#fee97d" data-original="#fee97d"></path><path d="M394.881 31.137h-23a6.487 6.487 0 0 1 6.487 6.487v88.849a6.483 6.483 0 0 1-6.325 6.479c.044.001.087.008.131.008h22.707a6.487 6.487 0 0 0 6.487-6.487V37.625a6.487 6.487 0 0 0-6.487-6.488zM223.148 102.035v372.34a6.487 6.487 0 0 1-6.487 6.487h23a6.487 6.487 0 0 0 6.487-6.487v-372.34a6.487 6.487 0 0 1 6.487-6.487h-23a6.487 6.487 0 0 0-6.487 6.487z" style="" fill="#fec165" data-original="#fec165"></path><path d="M462.587 184.332 272.405 374.515l37.356 37.356 190.182-190.182c6.076-6.076 6.076-15.927 0-22.003l-15.352-15.352c-6.076-6.078-15.928-6.078-22.004-.002z" style="" fill="#6cf5c2" data-original="#6cf5c2"></path><path d="m499.943 199.685-15.352-15.352c-.034-.034-.073-.063-.107-.097 5.973 6.084 5.945 15.855-.097 21.896L294.204 396.314l15.556 15.556 190.182-190.182c6.077-6.076 6.077-15.927.001-22.003z" style="" fill="#0ed2b3" data-original="#0ed2b3"></path><path d="m330.635 390.996-37.356-37.356c-18.422-5.27-39.07-.67-53.579 13.839-32.254 32.254 7.426 47.132-21.115 80.273-2.315 2.688-1.906 6.784.897 8.958 30.074 23.322 77.196 7.983 97.314-12.135 14.509-14.509 19.109-35.157 13.839-53.579z" style="" fill="#678d98" data-original="#678d98"></path><path d="m330.635 390.996-15.556-15.556c5.27 18.422.67 39.07-13.839 53.579-17.23 17.23-54.265 30.95-83.437 19.885-1.376 2.602-.748 5.924 1.679 7.806 30.074 23.321 77.196 7.983 97.314-12.135 14.509-14.509 19.109-35.157 13.839-53.579z" style="" fill="#537983" data-original="#537983"></path><path d="m366.413 268.37-45.401 45.401a9.392 9.392 0 0 0 0 13.283l36.209 36.209a9.392 9.392 0 0 0 13.283 0l45.401-45.401a9.392 9.392 0 0 0 0-13.283l-36.209-36.209c-3.669-3.667-9.615-3.667-13.283 0z" style="" fill="#8379c1" data-original="#8379c1"></path><path d="m415.905 304.58-15.556-15.556a9.392 9.392 0 0 1 0 13.283l-45.401 45.401a9.392 9.392 0 0 1-13.283 0l15.556 15.556a9.392 9.392 0 0 0 13.283 0l45.401-45.401a9.392 9.392 0 0 0 0-13.283z" style="" fill="#6354b1" data-original="#6354b1"></path><path d="M162.72 176.77v-74.73c0-3.59-2.9-6.49-6.49-6.49H68.28c-2.19 0-4.22 1.1-5.42 2.92l-20.74 31.57a6.504 6.504 0 0 1-5.43 2.92h-22.7c-3.59 0-6.49-2.9-6.49-6.49V37.62c0-3.58 2.9-6.48 6.49-6.48h380.89c3.58 0 6.49 2.9 6.49 6.48v88.85a6.49 6.49 0 0 1-6.49 6.49h-22.71a6.5 6.5 0 0 1-5.42-2.92l-20.74-31.57a6.5 6.5 0 0 0-5.42-2.92h-87.95c-3.59 0-6.49 2.9-6.49 6.49v259.92" style="stroke-width:15;stroke-linecap:round;stroke-linejoin:round;stroke-miterlimit:10;" fill="none" stroke="#000000" stroke-width="15" stroke-linecap="round" stroke-linejoin="round" stroke-miterlimit="10" data-original="#000000"></path><path d="M246.15 467.73v6.65c0 3.58-2.91 6.48-6.49 6.48h-70.45a6.48 6.48 0 0 1-6.49-6.48V211.77M357.82 363.81 330.63 391M450.51 271.12l-34.06 34.06M379.09 267.82l83.5-83.49c6.07-6.07 15.92-6.07 22 0l15.35 15.35c6.08 6.08 6.08 15.93 0 22.01l-24.44 24.44M320.46 326.45l-27.18 27.19h-.01" style="stroke-width:15;stroke-linecap:round;stroke-linejoin:round;stroke-miterlimit:10;" fill="none" stroke="#000000" stroke-width="15" stroke-linecap="round" stroke-linejoin="round" stroke-miterlimit="10" data-original="#000000"></path><path d="m330.635 390.996-37.356-37.356c-18.422-5.27-39.07-.67-53.579 13.839-32.254 32.254 7.426 47.132-21.115 80.273-2.315 2.688-1.906 6.784.897 8.958 30.074 23.322 77.196 7.983 97.314-12.135 14.509-14.509 19.109-35.157 13.839-53.579zM366.413 268.37l-45.401 45.401a9.392 9.392 0 0 0 0 13.283l36.209 36.209a9.392 9.392 0 0 0 13.283 0l45.401-45.401a9.392 9.392 0 0 0 0-13.283l-36.209-36.209c-3.669-3.667-9.615-3.667-13.283 0z" style="stroke-width:15;stroke-linecap:round;stroke-linejoin:round;stroke-miterlimit:10;" fill="none" stroke="#000000" stroke-width="15" stroke-linecap="round" stroke-linejoin="round" stroke-miterlimit="10" data-original="#000000"></path></g></svg>